{
  "accessors": [
    {
      "bufferView": 2,
      "componentType": 5126,
      "count": 12045,
      "max": [
        6.223730087280273,
        0.5726569890975952,
        19.69658660888672
      ],
      "min": [
        -6.223730087280273,
        -2.229775905609131,
        0.175478994846344
      ],
      "type": "VEC3"
    },
    {
      "bufferView": 2,
      "byteOffset": 144540,
      "componentType": 5126,
      "count": 12045,
      "max": [
        1.0,
        1.0,
        0.999024510383606
      ],
      "min": [
        -1.0,
        -1.0,
        -1.0
      ],
      "type": "VEC3"
    },
    {
      "bufferView": 1,
      "componentType": 5126,
      "count": 12045,
      "max": [
        0.979220986366272,
        0.9879140257835388
      ],
      "min": [
        0.03814300149679184,
        0.0019920000340789557
      ],
      "type": "VEC2"
    },
    {
      "bufferView": 0,
      "componentType": 5125,
      "count": 69384,
      "type": "SCALAR"
    },
    {
      "bufferView": 2,
      "byteOffset": 289080,
      "componentType": 5126,
      "count": 1642,
      "max": [
        0.9772800207138062,
        -1.257390022277832,
        18.64112091064453
      ],
      "min": [
        0.08935599774122238,
        -2.0384840965270996,
        17.753198623657227
      ],
      "type": "VEC3"
    },
    {
      "bufferView": 2,
      "byteOffset": 308784,
      "componentType": 5126,
      "count": 1642,
      "max": [
        1.0,
        1.0,
        1.0
      ],
      "min": [
        -1.0,
        -1.0,
        -1.0
      ],
      "type": "VEC3"
    },
    {
      "bufferView": 1,
      "byteOffset": 96360,
      "componentType": 5126,
      "count": 1642,
      "max": [
        0.9145370125770569,
        0.9668899774551392
      ],
      "min": [
        0.08913899958133698,
        0.0018220000201836228
      ],
      "type": "VEC2"
    },
    {
      "bufferView": 0,
      "byteOffset": 277536,
      "componentType": 5125,
      "count": 9360,
      "type": "SCALAR"
    },
    {
      "bufferView": 2,
      "byteOffset": 328488,
      "componentType": 5126,
      "count": 1642,
      "max": [
        -0.08378800004720688,
        -1.257390022277832,
        18.64112091064453
      ],
      "min": [
        -0.9717119932174683,
        -2.0384840965270996,
        17.753198623657227
      ],
      "type": "VEC3"
    },
    {
      "bufferView": 2,
      "byteOffset": 348192,
      "componentType": 5126,
      "count": 1642,
      "max": [
        1.0,
        1.0,
        1.0
      ],
      "min": [
        -1.0,
        -1.0,
        -1.0
      ],
      "type": "VEC3"
    },
    {
      "bufferView": 1,
      "byteOffset": 109496,
      "componentType": 5126,
      "count": 1642,
      "max": [
        0.9980080127716064,
        0.965345025062561
      ],
      "min": [
        0.0019920000340789557,
        0.0018220000201836228
      ],
      "type": "VEC2"
    },
    {
      "bufferView": 0,
      "byteOffset": 314976,
      "componentType": 5125,
      "count": 9360,
      "type": "SCALAR"
    },
    {
      "bufferView": 2,
      "byteOffset": 367896,
      "componentType": 5126,
      "count": 1704,
      "max": [
        1.2255510091781616,
        0.6416119933128357,
        10.2433443069458
      ],
      "min": [
        -1.2085230350494385,
        -1.0756969451904297,
        1.5447310209274292
      ],
      "type": "VEC3"
    },
    {
      "bufferView": 2,
      "byteOffset": 388344,
      "componentType": 5126,
      "count": 1704,
      "max": [
        0.9999898672103882,
        0.9999881386756897,
        0.9999997615814209
      ],
      "min": [
        -0.9999991059303284,
        -0.9999721050262451,
        -0.9997127652168274
      ],
      "type": "VEC3"
    },
    {
      "bufferView": 1,
      "byteOffset": 122632,
      "componentType": 5126,
      "count": 1704,
      "max": [
        0.9536669850349426,
        0.8876829743385315
      ],
      "min": [
        0.05200999975204468,
        0.0840189978480339
      ],
      "type": "VEC2"
    },
    {
      "bufferView": 0,
      "byteOffset": 352416,
      "componentType": 5125,
      "count": 9012,
      "type": "SCALAR"
    },
    {
      "bufferView": 2,
      "byteOffset": 408792,
      "componentType": 5126,
      "count": 2473,
      "max": [
        1.6451799869537354,
        1.364549994468689,
        18.502782821655273
      ],
      "min": [
        -2.168487071990967,
        -0.6186140179634094,
        15.993426322937012
      ],
      "type": "VEC3"
    },
    {
      "bufferView": 2,
      "byteOffset": 438468,
      "componentType": 5126,
      "count": 2473,
      "max": [
        0.9996240139007568,
        0.9996721148490906,
        0.9982450008392334
      ],
      "min": [
        -0.9983153343200684,
        -0.9978084564208984,
        -0.9984743595123291
      ],
      "type": "VEC3"
    },
    {
      "bufferView": 1,
      "byteOffset": 136264,
      "componentType": 5126,
      "count": 2473,
      "max": [
        0.9980080127716064,
        0.9780579805374146
      ],
      "min": [
        0.4523949921131134,
        0.001959000015631318
      ],
      "type": "VEC2"
    },
    {
      "bufferView": 0,
      "byteOffset": 388464,
      "componentType": 5125,
      "count": 13848,
      "type": "SCALAR"
    },
    {
      "bufferView": 2,
      "byteOffset": 468144,
      "componentType": 5126,
      "count": 2475,
      "max": [
        1.1563299894332886,
        0.555554986000061,
        21.14876937866211
      ],
      "min": [
        -1.733096957206726,
        -1.2652130126953125,
        16.080366134643555
      ],
      "type": "VEC3"
    },
    {
      "bufferView": 2,
      "byteOffset": 497844,
      "componentType": 5126,
      "count": 2475,
      "max": [
        0.9953192472457886,
        0.9994670152664185,
        0.9970634579658508
      ],
      "min": [
        -0.9992181062698364,
        -0.9807051420211792,
        -0.9992454648017883
      ],
      "type": "VEC3"
    },
    {
      "bufferView": 1,
      "byteOffset": 156048,
      "componentType": 5126,
      "count": 2475,
      "max": [
        0.8276339769363403,
        0.9815149903297424
      ],
      "min": [
        0.5030679702758789,
        0.5932009816169739
      ],
      "type": "VEC2"
    },
    {
      "bufferView": 0,
      "byteOffset": 443856,
      "componentType": 5125,
      "count": 13860,
      "type": "SCALAR"
    },
    {
      "bufferView": 2,
      "byteOffset": 527544,
      "componentType": 5126,
      "count": 2639,
      "max": [
        2.3475680351257324,
        1.3781729936599731,
        21.14876937866211
      ],
      "min": [
        -2.127026081085205,
        -1.2652130126953125,
        16.81940269470215
      ],
      "type": "VEC3"
    },
    {
      "bufferView": 2,
      "byteOffset": 559212,
      "componentType": 5126,
      "count": 2639,
      "max": [
        0.9991084337234497,
        0.9998486638069153,
        0.9992321133613586
      ],
      "min": [
        -0.9992181062698364,
        -0.9296902418136597,
        -0.9968412518501282
      ],
      "type": "VEC3"
    },
    {
      "bufferView": 1,
      "byteOffset": 175848,
      "componentType": 5126,
      "count": 2639,
      "max": [
        0.7409330010414124,
        0.6088200211524963
      ],
      "min": [
        0.0019920000340789557,
        0.001959000015631318
      ],
      "type": "VEC2"
    },
    {
      "bufferView": 0,
      "byteOffset": 499296,
      "componentType": 5125,
      "count": 14820,
      "type": "SCALAR"
    },
    {
      "bufferView": 2,
      "byteOffset": 590880,
      "componentType": 5126,
      "count": 1154,
      "max": [
        2.266155958175659,
        1.51282799243927,
        18.84815788269043
      ],
      "min": [
        -2.342406988143921,
        -0.9667180180549622,
        17.42409324645996
      ],
      "type": "VEC3"
    },
    {
      "bufferView": 2,
      "byteOffset": 604728,
      "componentType": 5126,
      "count": 1154,
      "max": [
        0.9420536160469055,
        0.9736076593399048,
        0.999846875667572
      ],
      "min": [
        -0.9178500175476074,
        -0.9361194372177124,
        -0.9865297675132751
      ],
      "type": "VEC3"
    },
    {
      "bufferView": 1,
      "byteOffset": 196960,
      "componentType": 5126,
      "count": 1154,
      "max": [
        0.4953550100326538,
        0.882972002029419
      ],
      "min": [
        0.0019920000340789557,
        0.6128119826316833
      ],
      "type": "VEC2"
    },
    {
      "bufferView": 0,
      "byteOffset": 558576,
      "componentType": 5125,
      "count": 6504,
      "type": "SCALAR"
    },
    {
      "bufferView": 2,
      "byteOffset": 618576,
      "componentType": 5126,
      "count": 2718,
      "max": [
        1.216176986694336,
        0.11847399920225143,
        17.000328063964844
      ],
      "min": [
        -1.2167489528656006,
        -1.7767740488052368,
        0.17558899521827698
      ],
      "type": "VEC3"
    },
    {
      "bufferView": 2,
      "byteOffset": 651192,
      "componentType": 5126,
      "count": 2718,
      "max": [
        0.9984762668609619,
        1.0,
        0.9998562335968018
      ],
      "min": [
        -0.9984761476516724,
        -1.0,
        -1.0
      ],
      "type": "VEC3"
    },
    {
      "bufferView": 1,
      "byteOffset": 206192,
      "componentType": 5126,
      "count": 2718,
      "max": [
        0.9513069987297058,
        0.9137219786643982
      ],
      "min": [
        -0.0005280000041238964,
        0.014198999851942062
      ],
      "type": "VEC2"
    },
    {
      "bufferView": 0,
      "byteOffset": 584592,
      "componentType": 5125,
      "count": 14688,
      "type": "SCALAR"
    },
    {
      "bufferView": 2,
      "byteOffset": 683808,
      "componentType": 5126,
      "count": 2717,
      "max": [
        0.652990996837616,
        -1.0969250202178955,
        16.890766143798828
      ],
      "min": [
        -0.6449390053749084,
        -1.7181819677352905,
        16.697467803955078
      ],
      "type": "VEC3"
    },
    {
      "bufferView": 2,
      "byteOffset": 716412,
      "componentType": 5126,
      "count": 2717,
      "max": [
        0.9959193468093872,
        0.9963503479957581,
        1.0
      ],
      "min": [
        -0.9959193468093872,
        -0.9963503479957581,
        -1.0
      ],
      "type": "VEC3"
    },
    {
      "bufferView": 1,
      "byteOffset": 227936,
      "componentType": 5126,
      "count": 2717,
      "max": [
        0.26197999715805054,
        0.9609689712524414
      ],
      "min": [
        0.018673000857234,
        0.648593008518219
      ],
      "type": "VEC2"
    },
    {
      "bufferView": 0,
      "byteOffset": 643344,
      "componentType": 5125,
      "count": 14976,
      "type": "SCALAR"
    },
    {
      "bufferView": 2,
      "byteOffset": 749016,
      "componentType": 5126,
      "count": 610,
      "max": [
        0.8998090028762817,
        -1.3478000164031982,
        18.951271057128906
      ],
      "min": [
        -0.8950080275535583,
        -1.9375439882278442,
        16.697467803955078
      ],
      "type": "VEC3"
    },
    {
      "bufferView": 2,
      "byteOffset": 756336,
      "componentType": 5126,
      "count": 610,
      "max": [
        0.9948582649230957,
        1.0,
        1.0
      ],
      "min": [
        -0.9948582649230957,
        -1.0,
        -0.9999882578849792
      ],
      "type": "VEC3"
    },
    {
      "bufferView": 1,
      "byteOffset": 249672,
      "componentType": 5126,
      "count": 610,
      "max": [
        0.9749789834022522,
        0.9610450267791748
      ],
      "min": [
        0.03168699890375137,
        0.5589519739151001
      ],
      "type": "VEC2"
    },
    {
      "bufferView": 0,
      "byteOffset": 703248,
      "componentType": 5125,
      "count": 3456,
      "type": "SCALAR"
    },
    {
      "bufferView": 2,
      "byteOffset": 763656,
      "componentType": 5126,
      "count": 1754,
      "max": [
        4.957434177398682,
        0.6042180061340332,
        15.823793411254883
      ],
      "min": [
        -4.978509902954102,
        -1.0378700494766235,
        9.1625337600708
      ],
      "type": "VEC3"
    },
    {
      "bufferView": 2,
      "byteOffset": 784704,
      "componentType": 5126,
      "count": 1754,
      "max": [
        1.0,
        1.0,
        0.9925569891929626
      ],
      "min": [
        -1.0,
        -0.9999988675117493,
        -0.8512518405914307
      ],
      "type": "VEC3"
    },
    {
      "bufferView": 1,
      "byteOffset": 254552,
      "componentType": 5126,
      "count": 1754,
      "max": [
        0.8303049802780151,
        0.63475102186203
      ],
      "min": [
        0.0018680000212043524,
        0.029534000903367996
      ],
      "type": "VEC2"
    },
    {
      "bufferView": 0,
      "byteOffset": 717072,
      "componentType": 5125,
      "count": 9312,
      "type": "SCALAR"
    },
    {
      "bufferView": 2,
      "byteOffset": 805752,
      "componentType": 5126,
      "count": 1585,
      "max": [
        4.914837837219238,
        1.4610079526901245,
        15.823793411254883
      ],
      "min": [
        -4.827816009521484,
        -1.0378700494766235,
        4.946728229522705
      ],
      "type": "VEC3"
    },
    {
      "bufferView": 2,
      "byteOffset": 824772,
      "componentType": 5126,
      "count": 1585,
      "max": [
        0.9999662637710571,
        1.0,
        0.9312430024147034
      ],
      "min": [
        -1.0,
        -0.9999988675117493,
        -0.990231454372406
      ],
      "type": "VEC3"
    },
    {
      "bufferView": 1,
      "byteOffset": 268584,
      "componentType": 5126,
      "count": 1585,
      "max": [
        0.39512398838996887,
        0.9559320211410522
      ],
      "min": [
        0.011610999703407288,
        0.0019920000340789557
      ],
      "type": "VEC2"
    },
    {
      "bufferView": 0,
      "byteOffset": 754320,
      "componentType": 5125,
      "count": 8640,
      "type": "SCALAR"
    }
  ],
  "asset": {
    "extras": {
      "author": "Héctor Flores \"Toro\" (https://sketchfab.com/mystiquecape)",
      "license": "CC-BY-NC-ND-4.0 (http://creativecommons.org/licenses/by-nc-nd/4.0/)",
      "source": "https://sketchfab.com/3d-models/rick-sanchez-96ca1fef5125435aa4dc08290c4ded13",
      "title": "Rick Sanchez"
    },
    "generator": "Sketchfab-12.65.0",
    "version": "2.0"
  },
  "bufferViews": [
    {
      "buffer": 0,
      "byteLength": 788880,
      "name": "floatBufferViews",
      "target": 34963
    },
    {
      "buffer": 0,
      "byteLength": 281264,
      "byteOffset": 788880,
      "byteStride": 8,
      "name": "floatBufferViews",
      "target": 34962
    },
    {
      "buffer": 0,
      "byteLength": 843792,
      "byteOffset": 1070144,
      "byteStride": 12,
      "name": "floatBufferViews",
      "target": 34962
    }
  ],
  "buffers": [
    {
      "byteLength": 1913936,
      "uri": "scene.bin"
    }
  ],
  "images": [
    {
      "uri": "textures/blinn1SG_baseColor.png"
    },
    {
      "uri": "textures/lambert10SG_baseColor.png"
    },
    {
      "uri": "textures/lambert12SG_baseColor.png"
    },
    {
      "uri": "textures/lambert5SG_baseColor.png"
    },
    {
      "uri": "textures/lambert6SG_baseColor.png"
    },
    {
      "uri": "textures/lambert8SG_baseColor.png"
    }
  ],
  "materials": [
    {
      "doubleSided": true,
      "name": "blinn1SG",
      "pbrMetallicRoughness": {
        "baseColorTexture": {
          "index": 0
        },
        "metallicFactor": 0.0
      }
    },
    {
      "doubleSided": true,
      "name": "lambert10SG",
      "pbrMetallicRoughness": {
        "baseColorTexture": {
          "index": 1
        },
        "metallicFactor": 0.0
      }
    },
    {
      "doubleSided": true,
      "name": "lambert12SG",
      "pbrMetallicRoughness": {
        "baseColorTexture": {
          "index": 2
        },
        "metallicFactor": 0.0
      }
    },
    {
      "doubleSided": true,
      "name": "lambert5SG",
      "pbrMetallicRoughness": {
        "baseColorTexture": {
          "index": 3
        },
        "metallicFactor": 0.0
      }
    },
    {
      "doubleSided": true,
      "name": "lambert6SG",
      "pbrMetallicRoughness": {
        "baseColorTexture": {
          "index": 4
        },
        "metallicFactor": 0.0
      }
    },
    {
      "doubleSided": true,
      "name": "lambert8SG",
      "pbrMetallicRoughness": {
        "baseColorTexture": {
          "index": 5
        },
        "metallicFactor": 0.0
      }
    }
  ],
  "meshes": [
    {
      "name": "Object_0",
      "primitives": [
        {
          "attributes": {
            "NORMAL": 1,
            "POSITION": 0,
            "TEXCOORD_0": 2
          },
          "indices": 3,
          "material": 2,
          "mode": 4
        }
      ]
    },
    {
      "name": "Object_1",
      "primitives": [
        {
          "attributes": {
            "NORMAL": 5,
            "POSITION": 4,
            "TEXCOORD_0": 6
          },
          "indices": 7,
          "material": 0,
          "mode": 4
        }
      ]
    },
    {
      "name": "Object_2",
      "primitives": [
        {
          "attributes": {
            "NORMAL": 9,
            "POSITION": 8,
            "TEXCOORD_0": 10
          },
          "indices": 11,
          "material": 0,
          "mode": 4
        }
      ]
    },
    {
      "name": "Object_3",
      "primitives": [
        {
          "attributes": {
            "NORMAL": 13,
            "POSITION": 12,
            "TEXCOORD_0": 14
          },
          "indices": 15,
          "material": 1,
          "mode": 4
        }
      ]
    },
    {
      "name": "Object_4",
      "primitives": [
        {
          "attributes": {
            "NORMAL": 17,
            "POSITION": 16,
            "TEXCOORD_0": 18
          },
          "indices": 19,
          "material": 3,
          "mode": 4
        }
      ]
    },
    {
      "name": "Object_5",
      "primitives": [
        {
          "attributes": {
            "NORMAL": 21,
            "POSITION": 20,
            "TEXCOORD_0": 22
          },
          "indices": 23,
          "material": 3,
          "mode": 4
        }
      ]
    },
    {
      "name": "Object_6",
      "primitives": [
        {
          "attributes": {
            "NORMAL": 25,
            "POSITION": 24,
            "TEXCOORD_0": 26
          },
          "indices": 27,
          "material": 3,
          "mode": 4
        }
      ]
    },
    {
      "name": "Object_7",
      "primitives": [
        {
          "attributes": {
            "NORMAL": 29,
            "POSITION": 28,
            "TEXCOORD_0": 30
          },
          "indices": 31,
          "material": 3,
          "mode": 4
        }
      ]
    },
    {
      "name": "Object_8",
      "primitives": [
        {
          "attributes": {
            "NORMAL": 33,
            "POSITION": 32,
            "TEXCOORD_0": 34
          },
          "indices": 35,
          "material": 4,
          "mode": 4
        }
      ]
    },
    {
      "name": "Object_9",
      "primitives": [
        {
          "attributes": {
            "NORMAL": 37,
            "POSITION": 36,
            "TEXCOORD_0": 38
          },
          "indices": 39,
          "material": 4,
          "mode": 4
        }
      ]
    },
    {
      "name": "Object_10",
      "primitives": [
        {
          "attributes": {
            "NORMAL": 41,
            "POSITION": 40,
            "TEXCOORD_0": 42
          },
          "indices": 43,
          "material": 4,
          "mode": 4
        }
      ]
    },
    {
      "name": "Object_11",
      "primitives": [
        {
          "attributes": {
            "NORMAL": 45,
            "POSITION": 44,
            "TEXCOORD_0": 46
          },
          "indices": 47,
          "material": 5,
          "mode": 4
        }
      ]
    },
    {
      "name": "Object_12",
      "primitives": [
        {
          "attributes": {
            "NORMAL": 49,
            "POSITION": 48,
            "TEXCOORD_0": 50
          },
          "indices": 51,
          "material": 5,
          "mode": 4
        }
      ]
    }
  ],
  "nodes": [
    {
      "children": [
        1
      ],
      "matrix": [
        1.0,
        0.0,
        0.0,
        0.0,
        0.0,
        2.220446049250313e-16,
        -1.0,
        0.0,
        0.0,
        1.0,
        2.220446049250313e-16,
        0.0,
        0.0,
        0.0,
        0.0,
        1.0
      ],
      "name": "Sketchfab_model"
    },
    {
      "children": [
        2,
        3,
        4,
        5,
        6,
        7,
        8,
        9,
        10,
        11,
        12,
        13,
        14
      ],
      "name": "Rick.obj.cleaner.materialmerger.gles"
    },
    {
      "mesh": 0,
      "name": "Object_2"
    },
    {
      "mesh": 1,
      "name": "Object_3"
    },
    {
      "mesh": 2,
      "name": "Object_4"
    },
    {
      "mesh": 3,
      "name": "Object_5"
    },
    {
      "mesh": 4,
      "name": "Object_6"
    },
    {
      "mesh": 5,
      "name": "Object_7"
    },
    {
      "mesh": 6,
      "name": "Object_8"
    },
    {
      "mesh": 7,
      "name": "Object_9"
    },
    {
      "mesh": 8,
      "name": "Object_10"
    },
    {
      "mesh": 9,
      "name": "Object_11"
    },
    {
      "mesh": 10,
      "name": "Object_12"
    },
    {
      "mesh": 11,
      "name": "Object_13"
    },
    {
      "mesh": 12,
      "name": "Object_14"
    }
  ],
  "samplers": [
    {
      "magFilter": 9729,
      "minFilter": 9987,
      "wrapS": 10497,
      "wrapT": 10497
    }
  ],
  "scene": 0,
  "scenes": [
    {
      "name": "Sketchfab_Scene",
      "nodes": [
        0
      ]
    }
  ],
  "textures": [
    {
      "sampler": 0,
      "source": 0
    },
    {
      "sampler": 0,
      "source": 1
    },
    {
      "sampler": 0,
      "source": 2
    },
    {
      "sampler": 0,
      "source": 3
    },
    {
      "sampler": 0,
      "source": 4
    },
    {
      "sampler": 0,
      "source": 5
    }
  ]
}
