{
  "accessors": [
    {
      "bufferView": 2,
      "componentType": 5126,
      "count": 758,
      "max": [
        2.0386743545532227,
        18.413921356201172,
        1.8326725959777832
      ],
      "min": [
        -1.9990581274032593,
        8.747310638427734,
        -1.9095896482467651
      ],
      "type": "VEC3"
    },
    {
      "bufferView": 2,
      "byteOffset": 9096,
      "componentType": 5126,
      "count": 758,
      "max": [
        0.9999789595603943,
        0.9998787641525269,
        0.9999959468841553
      ],
      "min": [
        -0.9999789595603943,
        -0.9999434947967529,
        -0.9999956488609314
      ],
      "type": "VEC3"
    },
    {
      "bufferView": 3,
      "componentType": 5126,
      "count": 758,
      "max": [
        1.0,
        0.9979372620582581,
        0.9999828338623047,
        1.0
      ],
      "min": [
        -1.0,
        -0.9981725215911865,
        -0.9999898076057434,
        -1.0
      ],
      "type": "VEC4"
    },
    {
      "bufferView": 1,
      "componentType": 5126,
      "count": 758,
      "max": [
        0.9986721277236938,
        0.9947257041931152
      ],
      "min": [
        0.006987154483795166,
        0.0027103833854198456
      ],
      "type": "VEC2"
    },
    {
      "bufferView": 0,
      "componentType": 5125,
      "count": 2208,
      "type": "SCALAR"
    }
  ],
  "asset": {
    "extras": {
      "author": "XOIAL (https://sketchfab.com/XOIAL)",
      "license": "CC-BY-SA-4.0 (http://creativecommons.org/licenses/by-sa/4.0/)",
      "source": "https://sketchfab.com/3d-models/mail-box-b303c8523e3446f09a543af8ac69b1b0",
      "title": "Mail Box"
    },
    "generator": "Sketchfab-15.49.0",
    "version": "2.0"
  },
  "bufferViews": [
    {
      "buffer": 0,
      "byteLength": 8832,
      "name": "floatBufferViews",
      "target": 34963
    },
    {
      "buffer": 0,
      "byteLength": 6064,
      "byteOffset": 8832,
      "byteStride": 8,
      "name": "floatBufferViews",
      "target": 34962
    },
    {
      "buffer": 0,
      "byteLength": 18192,
      "byteOffset": 14896,
      "byteStride": 12,
      "name": "floatBufferViews",
      "target": 34962
    },
    {
      "buffer": 0,
      "byteLength": 12128,
      "byteOffset": 33088,
      "byteStride": 16,
      "name": "floatBufferViews",
      "target": 34962
    }
  ],
  "buffers": [
    {
      "byteLength": 45216,
      "uri": "scene.bin"
    }
  ],
  "images": [
    {
      "uri": "textures/Mailbox_Material_baseColor.png"
    },
    {
      "uri": "textures/Mailbox_Material_metallicRoughness.png"
    },
    {
      "uri": "textures/Mailbox_Material_normal.png"
    }
  ],
  "materials": [
    {
      "doubleSided": true,
      "name": "Mailbox_Material",
      "normalTexture": {
        "index": 2
      },
      "pbrMetallicRoughness": {
        "baseColorTexture": {
          "index": 0
        },
        "metallicRoughnessTexture": {
          "index": 1
        }
      }
    }
  ],
  "meshes": [
    {
      "name": "Mail_Box_Completed_Mailbox_Material_0",
      "primitives": [
        {
          "attributes": {
            "NORMAL": 1,
            "POSITION": 0,
            "TANGENT": 2,
            "TEXCOORD_0": 3
          },
          "indices": 4,
          "material": 0,
          "mode": 4
        }
      ]
    }
  ],
  "nodes": [
    {
      "children": [
        1
      ],
      "matrix": [
        1.0,
        0.0,
        0.0,
        0.0,
        0.0,
        2.220446049250313e-16,
        -1.0,
        0.0,
        0.0,
        1.0,
        2.220446049250313e-16,
        0.0,
        0.0,
        0.0,
        0.0,
        1.0
      ],
      "name": "Sketchfab_model"
    },
    {
      "children": [
        2
      ],
      "matrix": [
        0.009999999776482582,
        0.0,
        0.0,
        0.0,
        0.0,
        0.0,
        0.009999999776482582,
        0.0,
        0.0,
        -0.009999999776482582,
        0.0,
        0.0,
        0.0,
        0.0,
        0.0,
        1.0
      ],
      "name": "165e79aee9be410cb8db68505f701592.fbx"
    },
    {
      "children": [
        3
      ],
      "name": "RootNode"
    },
    {
      "children": [
        4
      ],
      "name": "Mail_Box_Completed"
    },
    {
      "mesh": 0,
      "name": "Mail_Box_Completed_Mailbox_Material_0"
    }
  ],
  "samplers": [
    {
      "magFilter": 9729,
      "minFilter": 9987,
      "wrapS": 10497,
      "wrapT": 10497
    }
  ],
  "scene": 0,
  "scenes": [
    {
      "name": "Sketchfab_Scene",
      "nodes": [
        0
      ]
    }
  ],
  "textures": [
    {
      "sampler": 0,
      "source": 0
    },
    {
      "sampler": 0,
      "source": 1
    },
    {
      "sampler": 0,
      "source": 2
    }
  ]
}
