<svg xmlns="http://www.w3.org/2000/svg" version="1.1" xmlns:xlink="http://www.w3.org/1999/xlink" xmlns:svgjs="http://svgjs.dev/svgjs" width="308.7612359841165"
   height="304.915625" viewBox="0 0 1500 1617"><g transform="matrix(1,0,0,1,-1.5073025175316843,0.6546558704452536)"><svg viewBox="0 0 229 247" data-background-color="#4f4d59" preserveAspectRatio="xMidYMid meet" height="1617" width="1500" xmlns="http://www.w3.org/2000/svg" xmlns:xlink="http://www.w3.org/1999/xlink"><g id="tight-bounds" transform="matrix(1,0,0,1,0.2301148510098301,-0.09999999999999432)"><svg viewBox="0 0 228.53977029798037 247.2" height="247.2" width="228.53977029798037"><g><svg viewBox="0 0 395.52 427.81413437372316" height="247.2" width="228.53977029798037"><g transform="matrix(1,0,0,1,0,240.18084555725125)"><svg viewBox="0 0 395.52 187.63328881647192" height="187.63328881647192" width="395.52"><g id="textblocktransform"><svg viewBox="0 0 395.52 187.63328881647192" height="187.63328881647192" width="395.52" id="textblock"><g><svg viewBox="0 0 395.52 131.62280065897858" height="131.62280065897858" width="395.52"><g transform="matrix(1,0,0,1,0,0)"><svg width="395.52" viewBox="3 -40.5 151.74 50.5" height="131.62280065897858" data-palette-color="#b59da0"><path d="M21.3 0L3 0 3-40.5 21.2-40.5 21.2-34.4 11.95-34.4 11.95-24.35 19-24.35 19-18.15 11.95-18.15 11.95-6.05 21.3-6.05 21.3 0ZM34.05 10L34.05 10Q30.8 10 28.4 9.35 26 8.7 24.67 7.4 23.35 6.1 23.35 4.1L23.35 4.1Q23.35 2.75 23.92 1.68 24.5 0.6 25.52-0.23 26.55-1.05 27.85-1.65L27.85-1.65Q25.95-2.2 24.9-3.3 23.85-4.4 23.85-6.25L23.85-6.25Q23.85-8 24.7-9.28 25.55-10.55 27.05-11.85L27.05-11.85Q25.65-13.1 24.92-14.93 24.2-16.75 24.2-19.35L24.2-19.35Q24.2-22.6 25.4-24.85 26.6-27.1 28.92-28.25 31.25-29.4 34.55-29.4L34.55-29.4Q36.8-29.4 38.5-28.85 40.2-28.3 41.4-27.15L41.4-27.15Q41.95-28 42.85-28.8 43.75-29.6 44.9-30.15L44.9-30.15 45.95-30.65 47.85-26.75Q47.4-26.6 46.6-26.25 45.8-25.9 44.92-25.5 44.05-25.1 43.35-24.7L43.35-24.7Q43.9-23.6 44.2-22.2 44.5-20.8 44.5-19.3L44.5-19.3Q44.5-16.2 43.37-13.95 42.25-11.7 40.05-10.53 37.85-9.35 34.55-9.35L34.55-9.35Q33.15-9.35 31.9-9.58 30.65-9.8 29.6-10.15L29.6-10.15Q29.3-9.75 29.07-9.33 28.85-8.9 28.85-8.4L28.85-8.4Q28.85-7.8 29.45-7.45 30.05-7.1 31.6-6.9L31.6-6.9 39.2-6.05Q42.9-5.65 44.65-3.68 46.4-1.7 46.4 1.5L46.4 1.5Q46.4 4.25 45.17 6.15 43.95 8.05 41.22 9.03 38.5 10 34.05 10ZM35.1 4.1L35.1 4.1Q37.85 4.1 39.32 3.65 40.8 3.2 40.8 1.8L40.8 1.8Q40.8 1.1 40.4 0.68 40 0.25 39.07-0.03 38.15-0.3 36.45-0.45L36.45-0.45 31.1-1Q30.6-0.65 30.22-0.23 29.85 0.2 29.62 0.68 29.4 1.15 29.4 1.7L29.4 1.7Q29.4 2.9 30.7 3.5 32 4.1 35.1 4.1ZM34.55-14.2L34.55-14.2Q35.25-14.2 35.7-14.48 36.15-14.75 36.37-15.35 36.6-15.95 36.7-16.95 36.8-17.95 36.8-19.35L36.8-19.35Q36.8-20.8 36.7-21.78 36.6-22.75 36.37-23.38 36.15-24 35.7-24.28 35.25-24.55 34.55-24.55L34.55-24.55Q33.85-24.55 33.4-24.28 32.95-24 32.72-23.4 32.5-22.8 32.4-21.8 32.3-20.8 32.3-19.35L32.3-19.35Q32.3-17.95 32.4-16.98 32.5-16 32.72-15.38 32.95-14.75 33.4-14.48 33.85-14.2 34.55-14.2ZM59.1 0.5L59.1 0.5Q55.95 0.5 53.7-0.63 51.45-1.75 50.25-3.93 49.05-6.1 49.05-9.15L49.05-9.15 49.05-19.75Q49.05-22.85 50.25-25 51.45-27.15 53.72-28.28 56-29.4 59.1-29.4L59.1-29.4Q62.3-29.4 64.42-28.3 66.55-27.2 67.62-25.05 68.7-22.9 68.7-19.75L68.7-19.75 68.7-13.95 57.1-13.95 57.1-8.4Q57.1-7.3 57.35-6.6 57.6-5.9 58.05-5.6 58.5-5.3 59.1-5.3L59.1-5.3Q59.7-5.3 60.17-5.58 60.65-5.85 60.92-6.45 61.2-7.05 61.2-8.1L61.2-8.1 61.2-11.15 68.7-11.15 68.7-8.35Q68.7-3.95 66.15-1.73 63.6 0.5 59.1 0.5ZM57.1-20.2L57.1-17.75 61.2-17.75 61.2-20.65Q61.2-21.8 60.92-22.45 60.65-23.1 60.17-23.35 59.7-23.6 59.05-23.6L59.05-23.6Q58.45-23.6 58.02-23.3 57.6-23 57.35-22.28 57.1-21.55 57.1-20.2L57.1-20.2ZM81.14 0L73.14 0 73.14-28.9 81.14-28.9 81.14-26.6Q82.74-28.15 84.47-28.8 86.19-29.45 87.99-29.45L87.99-29.45Q89.74-29.45 91.02-28.58 92.29-27.7 92.94-26L92.94-26Q94.64-27.9 96.52-28.68 98.39-29.45 100.29-29.45L100.29-29.45Q101.99-29.45 103.24-28.63 104.49-27.8 105.19-26.23 105.89-24.65 105.89-22.45L105.89-22.45 105.89 0 97.89 0 97.89-21.6Q97.89-22.8 97.47-23.33 97.04-23.85 96.19-23.85L96.19-23.85Q95.69-23.85 94.94-23.58 94.19-23.3 93.49-22.8L93.49-22.8Q93.49-22.7 93.49-22.63 93.49-22.55 93.49-22.45L93.49-22.45 93.49 0 85.59 0 85.59-21.6Q85.59-22.8 85.14-23.33 84.69-23.85 83.84-23.85L83.84-23.85Q83.29-23.85 82.57-23.58 81.84-23.3 81.14-22.8L81.14-22.8 81.14 0ZM120.24 0.5L120.24 0.5Q117.09 0.5 114.84-0.63 112.59-1.75 111.39-3.93 110.19-6.1 110.19-9.15L110.19-9.15 110.19-19.75Q110.19-22.85 111.39-25 112.59-27.15 114.87-28.28 117.14-29.4 120.24-29.4L120.24-29.4Q123.44-29.4 125.57-28.3 127.69-27.2 128.77-25.05 129.84-22.9 129.84-19.75L129.84-19.75 129.84-13.95 118.24-13.95 118.24-8.4Q118.24-7.3 118.49-6.6 118.74-5.9 119.19-5.6 119.64-5.3 120.24-5.3L120.24-5.3Q120.84-5.3 121.32-5.58 121.79-5.85 122.07-6.45 122.34-7.05 122.34-8.1L122.34-8.1 122.34-11.15 129.84-11.15 129.84-8.35Q129.84-3.95 127.29-1.73 124.74 0.5 120.24 0.5ZM118.24-20.2L118.24-17.75 122.34-17.75 122.34-20.65Q122.34-21.8 122.07-22.45 121.79-23.1 121.32-23.35 120.84-23.6 120.19-23.6L120.19-23.6Q119.59-23.6 119.17-23.3 118.74-23 118.49-22.28 118.24-21.55 118.24-20.2L118.24-20.2ZM142.44 0L134.29 0 134.29-28.9 142.44-28.9 142.44-26Q144.04-27.6 145.76-28.5 147.49-29.4 149.39-29.4L149.39-29.4Q151.19-29.4 152.36-28.53 153.54-27.65 154.14-26.13 154.74-24.6 154.74-22.65L154.74-22.65 154.74 0 146.64 0 146.64-21.5Q146.64-22.55 146.29-23.1 145.94-23.65 144.99-23.65L144.99-23.65Q144.49-23.65 143.81-23.38 143.14-23.1 142.44-22.6L142.44-22.6 142.44 0Z" opacity="1" transform="matrix(1,0,0,1,0,0)" fill="#b59da0" class="wordmark-text-0" data-fill-palette-color="primary" id="text-0"></path></svg></g></svg></g><g transform="matrix(1,0,0,1,75.54432,162.6957849473476)"><svg viewBox="0 0 244.43135999999998 24.937503869124317" height="24.937503869124317" width="244.43135999999998"><g transform="matrix(1,0,0,1,0,0)"><svg width="244.43135999999998" viewBox="0.9 -37.15 446.18 45.53" height="24.937503869124317" data-palette-color="#191717"><path d="M24.68-32.75L23.03-29.58Q22.75-29.03 22.39-28.8 22.03-28.58 21.53-28.58L21.53-28.58Q21.03-28.58 20.4-28.96 19.78-29.35 18.93-29.83 18.07-30.3 16.94-30.69 15.8-31.08 14.25-31.08L14.25-31.08Q12.85-31.08 11.81-30.74 10.78-30.4 10.06-29.8 9.35-29.2 9-28.36 8.65-27.53 8.65-26.53L8.65-26.53Q8.65-25.25 9.36-24.4 10.08-23.55 11.25-22.95 12.43-22.35 13.93-21.88 15.43-21.4 16.99-20.86 18.55-20.33 20.05-19.61 21.55-18.9 22.73-17.81 23.9-16.73 24.61-15.15 25.33-13.58 25.33-11.33L25.33-11.33Q25.33-8.88 24.49-6.74 23.65-4.6 22.04-3.01 20.43-1.43 18.1-0.51 15.78 0.4 12.78 0.4L12.78 0.4Q11.05 0.4 9.38 0.06 7.7-0.28 6.16-0.9 4.63-1.53 3.29-2.4 1.95-3.28 0.9-4.35L0.9-4.35 2.85-7.58Q3.13-7.93 3.51-8.16 3.9-8.4 4.38-8.4L4.38-8.4Q5-8.4 5.73-7.89 6.45-7.38 7.44-6.75 8.43-6.13 9.76-5.61 11.1-5.1 12.98-5.1L12.98-5.1Q15.85-5.1 17.43-6.46 19-7.83 19-10.38L19-10.38Q19-11.8 18.29-12.7 17.57-13.6 16.4-14.21 15.23-14.83 13.73-15.25 12.23-15.68 10.68-16.18 9.13-16.68 7.63-17.38 6.13-18.07 4.95-19.2 3.78-20.33 3.06-22.01 2.35-23.7 2.35-26.18L2.35-26.18Q2.35-28.15 3.14-30.03 3.93-31.9 5.44-33.35 6.95-34.8 9.15-35.68 11.35-36.55 14.18-36.55L14.18-36.55Q17.38-36.55 20.08-35.55 22.78-34.55 24.68-32.75L24.68-32.75ZM41.07-26.05L41.07-26.05Q43.95-26.05 46.29-25.13 48.62-24.2 50.27-22.5 51.92-20.8 52.82-18.35 53.72-15.9 53.72-12.88L53.72-12.88Q53.72-9.83 52.82-7.38 51.92-4.93 50.27-3.2 48.62-1.48 46.29-0.55 43.95 0.38 41.07 0.38L41.07 0.38Q38.2 0.38 35.85-0.55 33.5-1.48 31.84-3.2 30.17-4.93 29.26-7.38 28.35-9.83 28.35-12.88L28.35-12.88Q28.35-15.9 29.26-18.35 30.17-20.8 31.84-22.5 33.5-24.2 35.85-25.13 38.2-26.05 41.07-26.05ZM41.07-4.38L41.07-4.38Q44.27-4.38 45.81-6.53 47.35-8.68 47.35-12.83L47.35-12.83Q47.35-16.98 45.81-19.15 44.27-21.33 41.07-21.33L41.07-21.33Q37.82-21.33 36.27-19.14 34.72-16.95 34.72-12.83L34.72-12.83Q34.72-8.7 36.27-6.54 37.82-4.38 41.07-4.38ZM65.82 0L59.65 0 59.65-21 57.42-21.35Q56.7-21.48 56.26-21.85 55.82-22.23 55.82-22.9L55.82-22.9 55.82-25.43 59.65-25.43 59.65-27.33Q59.65-29.53 60.31-31.28 60.97-33.02 62.21-34.25 63.45-35.48 65.22-36.13 67-36.77 69.22-36.77L69.22-36.77Q71-36.77 72.52-36.3L72.52-36.3 72.4-33.2Q72.34-32.48 71.72-32.3 71.09-32.13 70.27-32.13L70.27-32.13Q69.17-32.13 68.31-31.89 67.45-31.65 66.84-31.06 66.25-30.48 65.93-29.51 65.62-28.55 65.62-27.13L65.62-27.13 65.62-25.43 72.3-25.43 72.3-21.03 65.82-21.03 65.82 0ZM84.49 0.4L84.49 0.4Q81.17 0.4 79.37-1.49 77.57-3.38 77.57-6.7L77.57-6.7 77.57-21.03 74.97-21.03Q74.47-21.03 74.11-21.35 73.74-21.68 73.74-22.33L73.74-22.33 73.74-24.78 77.87-25.45 79.17-32.45Q79.27-32.95 79.63-33.23 79.99-33.5 80.54-33.5L80.54-33.5 83.74-33.5 83.74-25.43 90.49-25.43 90.49-21.03 83.74-21.03 83.74-7.13Q83.74-5.93 84.34-5.25 84.94-4.58 85.94-4.58L85.94-4.58Q86.52-4.58 86.91-4.71 87.29-4.85 87.58-5 87.87-5.15 88.09-5.29 88.32-5.43 88.54-5.43L88.54-5.43Q88.82-5.43 88.99-5.29 89.17-5.15 89.37-4.88L89.37-4.88 91.22-1.88Q89.87-0.75 88.12-0.18 86.37 0.4 84.49 0.4ZM100.42 0L92.29-25.65 97.19-25.65Q97.89-25.65 98.37-25.33 98.84-25 98.97-24.5L98.97-24.5 102.64-10.8Q102.94-9.68 103.13-8.6 103.32-7.53 103.49-6.45L103.49-6.45Q103.77-7.53 104.08-8.6 104.39-9.68 104.74-10.8L104.74-10.8 108.99-24.55Q109.14-25.05 109.59-25.38 110.04-25.7 110.64-25.7L110.64-25.7 113.37-25.7Q114.04-25.7 114.49-25.38 114.94-25.05 115.09-24.55L115.09-24.55 119.29-10.55Q119.62-9.47 119.88-8.46 120.14-7.45 120.39-6.43L120.39-6.43Q120.57-7.5 120.78-8.58 120.99-9.65 121.32-10.8L121.32-10.8 125.12-24.5Q125.24-25 125.72-25.33 126.19-25.65 126.82-25.65L126.82-25.65 131.49-25.65 123.37 0 118.39 0Q117.59 0 117.24-1.1L117.24-1.1 112.62-15.93Q112.39-16.65 112.2-17.39 112.02-18.13 111.89-18.85L111.89-18.85Q111.74-18.1 111.57-17.36 111.39-16.63 111.17-15.88L111.17-15.88 106.49-1.1Q106.14 0 105.14 0L105.14 0 100.42 0ZM155.06-16.2L155.06 0 152.29 0Q151.41 0 150.91-0.26 150.41-0.53 150.16-1.33L150.16-1.33 149.61-3.15Q148.64-2.27 147.7-1.61 146.76-0.95 145.76-0.5 144.76-0.05 143.64 0.18 142.51 0.4 141.14 0.4L141.14 0.4Q139.51 0.4 138.14-0.04 136.76-0.48 135.78-1.35 134.79-2.23 134.24-3.53 133.69-4.83 133.69-6.55L133.69-6.55Q133.69-8 134.45-9.41 135.21-10.83 136.99-11.96 138.76-13.1 141.71-13.85 144.66-14.6 149.04-14.7L149.04-14.7 149.04-16.2Q149.04-18.78 147.95-20.01 146.86-21.25 144.79-21.25L144.79-21.25Q143.29-21.25 142.29-20.9 141.29-20.55 140.55-20.11 139.81-19.68 139.19-19.33 138.56-18.98 137.81-18.98L137.81-18.98Q137.19-18.98 136.74-19.3 136.29-19.63 136.01-20.1L136.01-20.1 134.89-22.08Q139.31-26.13 145.56-26.13L145.56-26.13Q147.81-26.13 149.58-25.39 151.34-24.65 152.56-23.34 153.79-22.03 154.43-20.2 155.06-18.38 155.06-16.2L155.06-16.2ZM143.06-3.85L143.06-3.85Q144.01-3.85 144.81-4.03 145.61-4.2 146.33-4.55 147.04-4.9 147.7-5.41 148.36-5.93 149.04-6.63L149.04-6.63 149.04-10.95Q146.34-10.83 144.53-10.49 142.71-10.15 141.61-9.63 140.51-9.1 140.05-8.4 139.59-7.7 139.59-6.88L139.59-6.88Q139.59-5.25 140.55-4.55 141.51-3.85 143.06-3.85ZM167.31 0L161.14 0 161.14-25.65 164.76-25.65Q165.71-25.65 166.09-25.3 166.46-24.95 166.59-24.1L166.59-24.1 166.96-21Q168.34-23.38 170.19-24.75 172.04-26.13 174.34-26.13L174.34-26.13Q176.24-26.13 177.49-25.25L177.49-25.25 176.69-20.63Q176.61-20.18 176.36-19.99 176.11-19.8 175.69-19.8L175.69-19.8Q175.31-19.8 174.66-19.98 174.01-20.15 172.94-20.15L172.94-20.15Q171.01-20.15 169.64-19.09 168.26-18.03 167.31-15.98L167.31-15.98 167.31 0ZM192.16-26.05L192.16-26.05Q194.58-26.05 196.62-25.28 198.66-24.5 200.13-23.01 201.61-21.53 202.43-19.36 203.26-17.2 203.26-14.43L203.26-14.43Q203.26-13.73 203.2-13.26 203.13-12.8 202.97-12.54 202.81-12.28 202.53-12.16 202.26-12.05 201.83-12.05L201.83-12.05 185.98-12.05Q186.26-8.1 188.11-6.25 189.96-4.4 193.01-4.4L193.01-4.4Q194.51-4.4 195.6-4.75 196.68-5.1 197.5-5.53 198.31-5.95 198.92-6.3 199.53-6.65 200.11-6.65L200.11-6.65Q200.48-6.65 200.76-6.5 201.03-6.35 201.23-6.08L201.23-6.08 203.03-3.83Q202.01-2.63 200.73-1.81 199.46-1 198.07-0.51 196.68-0.03 195.25 0.18 193.81 0.38 192.46 0.38L192.46 0.38Q189.78 0.38 187.48-0.51 185.18-1.4 183.48-3.14 181.78-4.88 180.81-7.44 179.83-10 179.83-13.38L179.83-13.38Q179.83-16 180.68-18.31 181.53-20.63 183.12-22.34 184.71-24.05 187-25.05 189.28-26.05 192.16-26.05ZM192.28-21.63L192.28-21.63Q189.58-21.63 188.06-20.1 186.53-18.57 186.11-15.78L186.11-15.78 197.71-15.78Q197.71-16.98 197.38-18.04 197.06-19.1 196.38-19.9 195.71-20.7 194.68-21.16 193.66-21.63 192.28-21.63ZM250.38-18.07L250.38-18.07Q250.38-14.1 249.05-10.78 247.73-7.45 245.33-5.05 242.93-2.65 239.55-1.33 236.18 0 232.08 0L232.08 0 218.28 0 218.28-36.15 232.08-36.15Q236.18-36.15 239.55-34.81 242.93-33.48 245.33-31.09 247.73-28.7 249.05-25.38 250.38-22.05 250.38-18.07ZM243.5-18.07L243.5-18.07Q243.5-21.05 242.7-23.41 241.9-25.78 240.43-27.41 238.95-29.05 236.84-29.93 234.73-30.8 232.08-30.8L232.08-30.8 225.05-30.8 225.05-5.35 232.08-5.35Q234.73-5.35 236.84-6.23 238.95-7.1 240.43-8.74 241.9-10.38 242.7-12.74 243.5-15.1 243.5-18.07ZM265.9-26.05L265.9-26.05Q268.33-26.05 270.36-25.28 272.4-24.5 273.88-23.01 275.35-21.53 276.18-19.36 277-17.2 277-14.43L277-14.43Q277-13.73 276.94-13.26 276.88-12.8 276.71-12.54 276.55-12.28 276.28-12.16 276-12.05 275.58-12.05L275.58-12.05 259.73-12.05Q260-8.1 261.85-6.25 263.7-4.4 266.75-4.4L266.75-4.4Q268.25-4.4 269.34-4.75 270.43-5.1 271.24-5.53 272.05-5.95 272.66-6.3 273.28-6.65 273.85-6.65L273.85-6.65Q274.23-6.65 274.5-6.5 274.78-6.35 274.98-6.08L274.98-6.08 276.78-3.83Q275.75-2.63 274.48-1.81 273.2-1 271.81-0.51 270.43-0.03 268.99 0.18 267.55 0.38 266.2 0.38L266.2 0.38Q263.53 0.38 261.23-0.51 258.93-1.4 257.23-3.14 255.53-4.88 254.55-7.44 253.58-10 253.58-13.38L253.58-13.38Q253.58-16 254.43-18.31 255.28-20.63 256.86-22.34 258.45-24.05 260.74-25.05 263.03-26.05 265.9-26.05ZM266.03-21.63L266.03-21.63Q263.33-21.63 261.8-20.1 260.28-18.57 259.85-15.78L259.85-15.78 271.45-15.78Q271.45-16.98 271.13-18.04 270.8-19.1 270.13-19.9 269.45-20.7 268.43-21.16 267.4-21.63 266.03-21.63ZM304.22-25.65L294.05 0 288.45 0 278.25-25.65 283.37-25.65Q284.05-25.65 284.51-25.33 284.97-25 285.15-24.5L285.15-24.5 290.1-10.8Q290.52-9.6 290.81-8.45 291.1-7.3 291.32-6.15L291.32-6.15Q291.55-7.3 291.84-8.45 292.12-9.6 292.57-10.8L292.57-10.8 297.65-24.5Q297.82-25 298.27-25.33 298.72-25.65 299.35-25.65L299.35-25.65 304.22-25.65ZM317.65-26.05L317.65-26.05Q320.07-26.05 322.11-25.28 324.15-24.5 325.62-23.01 327.1-21.53 327.92-19.36 328.75-17.2 328.75-14.43L328.75-14.43Q328.75-13.73 328.68-13.26 328.62-12.8 328.46-12.54 328.3-12.28 328.02-12.16 327.75-12.05 327.32-12.05L327.32-12.05 311.47-12.05Q311.75-8.1 313.6-6.25 315.45-4.4 318.5-4.4L318.5-4.4Q320-4.4 321.08-4.75 322.17-5.1 322.98-5.53 323.8-5.95 324.41-6.3 325.02-6.65 325.6-6.65L325.6-6.65Q325.97-6.65 326.25-6.5 326.52-6.35 326.72-6.08L326.72-6.08 328.52-3.83Q327.5-2.63 326.22-1.81 324.95-1 323.56-0.51 322.17-0.03 320.73 0.18 319.3 0.38 317.95 0.38L317.95 0.38Q315.27 0.38 312.97-0.51 310.67-1.4 308.97-3.14 307.27-4.88 306.3-7.44 305.32-10 305.32-13.38L305.32-13.38Q305.32-16 306.17-18.31 307.02-20.63 308.61-22.34 310.2-24.05 312.48-25.05 314.77-26.05 317.65-26.05ZM317.77-21.63L317.77-21.63Q315.07-21.63 313.55-20.1 312.02-18.57 311.6-15.78L311.6-15.78 323.2-15.78Q323.2-16.98 322.87-18.04 322.55-19.1 321.87-19.9 321.2-20.7 320.17-21.16 319.15-21.63 317.77-21.63ZM334.17-37.15L340.34-37.15 340.34 0 334.17 0 334.17-37.15ZM358.27-26.05L358.27-26.05Q361.14-26.05 363.48-25.13 365.82-24.2 367.47-22.5 369.12-20.8 370.02-18.35 370.92-15.9 370.92-12.88L370.92-12.88Q370.92-9.83 370.02-7.38 369.12-4.93 367.47-3.2 365.82-1.48 363.48-0.55 361.14 0.38 358.27 0.38L358.27 0.38Q355.39 0.38 353.04-0.55 350.69-1.48 349.03-3.2 347.37-4.93 346.45-7.38 345.54-9.83 345.54-12.88L345.54-12.88Q345.54-15.9 346.45-18.35 347.37-20.8 349.03-22.5 350.69-24.2 353.04-25.13 355.39-26.05 358.27-26.05ZM358.27-4.38L358.27-4.38Q361.47-4.38 363-6.53 364.54-8.68 364.54-12.83L364.54-12.83Q364.54-16.98 363-19.15 361.47-21.33 358.27-21.33L358.27-21.33Q355.02-21.33 353.47-19.14 351.92-16.95 351.92-12.83L351.92-12.83Q351.92-8.7 353.47-6.54 355.02-4.38 358.27-4.38ZM381.91 8.38L375.74 8.38 375.74-25.65 379.51-25.65Q380.11-25.65 380.54-25.38 380.96-25.1 381.09-24.53L381.09-24.53 381.59-22.15Q383.14-23.93 385.15-25.03 387.16-26.13 389.86-26.13L389.86-26.13Q391.96-26.13 393.7-25.25 395.44-24.38 396.7-22.71 397.96-21.05 398.65-18.61 399.34-16.18 399.34-13.03L399.34-13.03Q399.34-10.15 398.56-7.7 397.79-5.25 396.35-3.45 394.91-1.65 392.88-0.64 390.84 0.38 388.31 0.38L388.31 0.38Q386.14 0.38 384.63-0.29 383.11-0.95 381.91-2.13L381.91-2.13 381.91 8.38ZM387.74-21.25L387.74-21.25Q385.81-21.25 384.45-20.44 383.09-19.63 381.91-18.15L381.91-18.15 381.91-6.65Q382.96-5.35 384.2-4.84 385.44-4.33 386.86-4.33L386.86-4.33Q388.26-4.33 389.4-4.85 390.54-5.38 391.33-6.45 392.11-7.53 392.54-9.16 392.96-10.8 392.96-13.03L392.96-13.03Q392.96-15.28 392.6-16.84 392.24-18.4 391.56-19.38 390.89-20.35 389.93-20.8 388.96-21.25 387.74-21.25ZM414.61-26.05L414.61-26.05Q417.04-26.05 419.07-25.28 421.11-24.5 422.59-23.01 424.06-21.53 424.89-19.36 425.71-17.2 425.71-14.43L425.71-14.43Q425.71-13.73 425.65-13.26 425.59-12.8 425.42-12.54 425.26-12.28 424.99-12.16 424.71-12.05 424.29-12.05L424.29-12.05 408.44-12.05Q408.71-8.1 410.56-6.25 412.41-4.4 415.46-4.4L415.46-4.4Q416.96-4.4 418.05-4.75 419.14-5.1 419.95-5.53 420.76-5.95 421.37-6.3 421.99-6.65 422.56-6.65L422.56-6.65Q422.94-6.65 423.21-6.5 423.49-6.35 423.69-6.08L423.69-6.08 425.49-3.83Q424.46-2.63 423.19-1.81 421.91-1 420.52-0.51 419.14-0.03 417.7 0.18 416.26 0.38 414.91 0.38L414.91 0.38Q412.24 0.38 409.94-0.51 407.64-1.4 405.94-3.14 404.24-4.88 403.26-7.44 402.29-10 402.29-13.38L402.29-13.38Q402.29-16 403.14-18.31 403.99-20.63 405.57-22.34 407.16-24.05 409.45-25.05 411.74-26.05 414.61-26.05ZM414.74-21.63L414.74-21.63Q412.04-21.63 410.51-20.1 408.99-18.57 408.56-15.78L408.56-15.78 420.16-15.78Q420.16-16.98 419.84-18.04 419.51-19.1 418.84-19.9 418.16-20.7 417.14-21.16 416.11-21.63 414.74-21.63ZM436.91 0L430.73 0 430.73-25.65 434.36-25.65Q435.31-25.65 435.68-25.3 436.06-24.95 436.18-24.1L436.18-24.1 436.56-21Q437.93-23.38 439.78-24.75 441.63-26.13 443.93-26.13L443.93-26.13Q445.83-26.13 447.08-25.25L447.08-25.25 446.28-20.63Q446.21-20.18 445.96-19.99 445.71-19.8 445.28-19.8L445.28-19.8Q444.91-19.8 444.26-19.98 443.61-20.15 442.53-20.15L442.53-20.15Q440.61-20.15 439.23-19.09 437.86-18.03 436.91-15.98L436.91-15.98 436.91 0Z" opacity="1" transform="matrix(1,0,0,1,0,0)" fill="#191717" class="slogan-text-1" data-fill-palette-color="secondary" id="text-1"></path></svg></g></svg></g></svg></g></svg></g><g transform="matrix(1,0,0,1,75.54431999999998,0)"><svg viewBox="0 0 244.43136 209.1078612688822" height="209.1078612688822" width="244.43136"><g><svg xmlns="http://www.w3.org/2000/svg" xmlns:xlink="http://www.w3.org/1999/xlink" version="1.1" x="8" y="0" viewBox="6.075000000000003 11.966 82.75 75.75000000000001" enable-background="new 0 0 100 100" xml:space="preserve" height="209.1078612688822" width="228.43136" class="icon-icon-0" data-fill-palette-color="accent" id="icon-0"><path d="M82.325 11.966h-69.75c-3.584 0-6.5 2.916-6.5 6.5v62.75c0 3.584 2.916 6.5 6.5 6.5h69.75c3.584 0 6.5-2.916 6.5-6.5v-62.75C88.825 14.882 85.909 11.966 82.325 11.966zM27.7 82.716H12.575c-0.827 0-1.5-0.673-1.5-1.5v-44.75H27.7V82.716zM83.825 81.216c0 0.827-0.673 1.5-1.5 1.5H32.7v-46.25h51.125V81.216zM83.825 31.466h-72.75v-13c0-0.827 0.673-1.5 1.5-1.5h69.75c0.827 0 1.5 0.673 1.5 1.5V31.466zM76.951 20.633c-1.93 0-3.5 1.57-3.5 3.5s1.57 3.5 3.5 3.5 3.5-1.57 3.5-3.5S78.881 20.633 76.951 20.633zM66.951 20.633c-1.93 0-3.5 1.57-3.5 3.5s1.57 3.5 3.5 3.5 3.5-1.57 3.5-3.5S68.881 20.633 66.951 20.633zM56.951 20.633c-1.93 0-3.5 1.57-3.5 3.5s1.57 3.5 3.5 3.5 3.5-1.57 3.5-3.5S58.881 20.633 56.951 20.633z" fill="#dcdcdc" data-fill-palette-color="accent"></path></svg></g></svg></g><g></g></svg></g><defs></defs></svg><rect width="228.53977029798037" height="247.2" fill="none" stroke="none" visibility="hidden"></rect></g></svg></g></svg>